<svg xmlns="http://www.w3.org/2000/svg" width="128" height="128" xml:space="preserve"><path fill="#282D33" d="M30.317 102.139a56.037 56.037 0 0 1-3.195-2.647l2.666-2.982a50.97 50.97 0 0 0 2.964 2.456l-2.435 3.173zm-6.182-5.527a54.991 54.991 0 0 1-2.762-3.096l3.082-2.549a51.857 51.857 0 0 0 2.563 2.871l-2.883 2.774zm-5.283-6.393a54.47 54.47 0 0 1-2.264-3.479l3.433-2.053a50.678 50.678 0 0 0 2.099 3.225l-3.268 2.307zM14.596 83.1a53.758 53.758 0 0 1-1.708-3.783l3.706-1.504a49.82 49.82 0 0 0 1.582 3.502l-3.58 1.785zm-3.122-7.686a54.248 54.248 0 0 1-1.107-3.999l3.894-.918a50.556 50.556 0 0 0 1.025 3.702l-3.812 1.215zM9.57 67.343a54.243 54.243 0 0 1-.482-4.125l3.988-.312c.099 1.274.25 2.559.446 3.819l-3.952.618zm3.351-8.275h-4v-.128c0-1.335.049-2.686.147-4.014l3.989.293a51.255 51.255 0 0 0-.136 3.721v.128zm.563-7.67-3.955-.597c.206-1.363.467-2.735.777-4.079l3.897.898a51.105 51.105 0 0 0-.719 3.778zm1.727-7.486-3.816-1.196a53.661 53.661 0 0 1 1.395-3.914l3.713 1.489a49.744 49.744 0 0 0-1.292 3.621zm2.858-7.134L14.48 35.01a53.92 53.92 0 0 1 1.977-3.652l3.442 2.037a51.408 51.408 0 0 0-1.83 3.383zm3.914-6.615-3.278-2.293a55.25 55.25 0 0 1 2.506-3.309l3.095 2.534a50.704 50.704 0 0 0-2.323 3.068zm4.871-5.951-2.896-2.76a54.892 54.892 0 0 1 2.975-2.894l2.679 2.971a51.715 51.715 0 0 0-2.758 2.683zm5.709-5.153-2.449-3.162a55.606 55.606 0 0 1 3.373-2.416l2.205 3.337a52.198 52.198 0 0 0-3.129 2.241zm6.417-4.239-1.948-3.493a55.535 55.535 0 0 1 3.696-1.883l1.681 3.63a51.11 51.11 0 0 0-3.429 1.746zm6.977-3.229-1.401-3.747a55.646 55.646 0 0 1 3.937-1.305l1.116 3.841a51.863 51.863 0 0 0-3.652 1.211zM97.686 102.142l-2.436-3.174a51.09 51.09 0 0 0 2.963-2.456l2.666 2.982a56.437 56.437 0 0 1-3.193 2.648zm6.181-5.529-2.883-2.771a52.619 52.619 0 0 0 2.561-2.872l3.084 2.547a56.107 56.107 0 0 1-2.762 3.096zm5.281-6.392-3.268-2.309a50.692 50.692 0 0 0 2.1-3.224l3.434 2.053a54.542 54.542 0 0 1-2.266 3.48zm4.256-7.119-3.58-1.783a50.694 50.694 0 0 0 1.584-3.505l3.705 1.508a54.69 54.69 0 0 1-1.709 3.78zm3.121-7.685-3.811-1.217a49.393 49.393 0 0 0 1.025-3.7l3.895.916a54.314 54.314 0 0 1-1.109 4.001zm1.907-8.072-3.953-.617c.197-1.26.346-2.544.445-3.819l3.988.312a54.844 54.844 0 0 1-.48 4.124zm-3.354-8.275.002-.174a52.418 52.418 0 0 0-.137-3.677l3.99-.29a56.08 56.08 0 0 1 .145 4.012l-4 .129zm-.562-7.67a51.278 51.278 0 0 0-.719-3.778l3.898-.896c.309 1.347.57 2.718.775 4.077l-3.954.597zm-1.727-7.486a49.826 49.826 0 0 0-1.291-3.622l3.713-1.487a54.008 54.008 0 0 1 1.395 3.913l-3.817 1.196zm-2.857-7.133a50.505 50.505 0 0 0-1.83-3.383l3.443-2.037a55.513 55.513 0 0 1 1.975 3.651l-3.588 1.769zm-3.912-6.617a51.253 51.253 0 0 0-2.324-3.068l3.096-2.533a55.773 55.773 0 0 1 2.506 3.308l-3.278 2.293zm-4.872-5.951a52.153 52.153 0 0 0-2.76-2.684l2.68-2.97a55.622 55.622 0 0 1 2.975 2.894l-2.895 2.76zm-5.709-5.153a52.331 52.331 0 0 0-3.129-2.241l2.205-3.337a56.18 56.18 0 0 1 3.373 2.416l-2.449 3.162zm-6.416-4.24a52.335 52.335 0 0 0-3.43-1.746l1.68-3.63a55.067 55.067 0 0 1 3.697 1.883l-1.947 3.493zm-6.978-3.228a50.969 50.969 0 0 0-3.65-1.211l1.117-3.841c1.326.386 2.648.825 3.934 1.305l-1.401 3.747zM85.846 90.538c-7.18-7.239-11.465-19.395-11.465-32.514a59.06 59.06 0 0 1 .713-9.157l3.951.625a55.004 55.004 0 0 0-.664 8.534c0 12.087 3.852 23.189 10.305 29.696l-2.84 2.816zM42.157 90.538l-2.84-2.816c6.452-6.506 10.303-17.607 10.303-29.698a54.9 54.9 0 0 0-.709-8.83l3.947-.646c.505 3.088.762 6.276.762 9.476.001 13.122-4.285 25.277-11.463 32.514zM97.063 118.001l-3.986-.32c.063-.789.092-1.449.092-2.077 0-6.463-2.34-12.516-6.588-17.041l2.916-2.738c4.947 5.271 7.672 12.295 7.672 19.779a30.929 30.929 0 0 1-.106 2.397zM30.942 118.005a28.71 28.71 0 0 1-.11-2.403c0-7.482 2.726-14.506 7.676-19.777l2.916 2.738c-4.251 4.526-6.592 10.578-6.592 17.039 0 .62.031 1.279.096 2.073l-3.986.33z"/><path fill="#282D33" d="M95.332 128H32.668c-2.467 0-4.474-1.997-4.474-4.452v-3.677c0-2.454 2.007-4.45 4.474-4.45H43.08v4H32.668a.463.463 0 0 0-.474.45v3.677c0 .249.213.452.474.452h62.664a.465.465 0 0 0 .475-.452v-3.677a.464.464 0 0 0-.475-.45H71.113v-4h24.219c2.469 0 4.475 1.996 4.475 4.45v3.677c0 2.455-2.006 4.452-4.475 4.452z"/><path fill="#282D33" d="M60.396 115.421h5.771v4h-5.771zM64 15.183c-4.215 0-7.644-3.405-7.644-7.59C56.356 3.406 59.786 0 64 0s7.642 3.406 7.642 7.593c.001 4.185-3.427 7.59-7.642 7.59zM64 4c-2.009 0-3.644 1.612-3.644 3.593 0 1.979 1.635 3.59 3.644 3.59s3.642-1.611 3.642-3.59C67.643 5.612 66.01 4 64 4z"/><path fill="#282D33" d="M84.854 27.254a2 2 0 0 1-1.998-1.917c-.432-1.713-7.782-9.858-18.856-10.163-11.073.304-18.421 8.449-18.854 10.162a2 2 0 0 1-3.999-.082c0-3.916 9.869-13.753 22.802-14.08l.051-.001.05.001c12.934.327 22.803 10.164 22.803 14.08.001 1.104-.894 2-1.999 2z"/><path fill="#282D33" d="M52.711 41.997c-.385 0-.775-.111-1.119-.343-7.25-4.903-10.457-13.014-10.443-14.538.01-1.104.931-2.026 2.017-1.983a2.002 2.002 0 0 1 1.974 1.804c.241 1.004 2.773 7.399 8.694 11.404a2 2 0 0 1-1.123 3.656zM74.813 42.311a2.002 2.002 0 0 1-1.079-3.686c6.219-3.971 8.879-10.641 9.129-11.688a2.001 2.001 0 0 1 1.975-1.804h.016a2 2 0 0 1 2 1.983c.014 1.607-3.354 10.021-10.967 14.88a2 2 0 0 1-1.074.315zM87.912 99.301H40.089c-2.467 0-4.474-1.997-4.474-4.451v-3.677c0-2.454 2.007-4.45 4.474-4.45h8.761v4h-8.761a.463.463 0 0 0-.474.45v3.677c0 .249.212.451.474.451h47.823c.26 0 .473-.202.473-.451v-3.677a.463.463 0 0 0-.473-.45H76.988v-4h10.924c2.467 0 4.473 1.996 4.473 4.45v3.677c0 2.454-2.006 4.451-4.473 4.451z"/><path fill="#282D33" d="M68.229 86.723h5.049v4h-5.049zM76.779 51.606H51.221c-2.467 0-4.474-1.997-4.474-4.452v-3.676c0-2.455 2.007-4.452 4.474-4.452H76.78c2.467 0 4.475 1.997 4.475 4.452v3.676c-.001 2.455-2.009 4.452-4.476 4.452zm-25.558-8.58a.464.464 0 0 0-.474.452v3.676c0 .25.213.452.474.452H76.78a.465.465 0 0 0 .475-.452v-3.676a.464.464 0 0 0-.475-.452H51.221z"/><g><path fill="#282D33" d="M72.352 23.254h11.543v4H72.352z"/></g></svg>